<svg width="84" height="55" viewBox="0 0 84 55" fill="none" xmlns="http://www.w3.org/2000/svg">
<g clip-path="url(#clip0_61_647)">
<path fill-rule="evenodd" clip-rule="evenodd" d="M79.9449 48.2198C80.5973 48.2198 81.235 48.4138 81.7775 48.7771C82.3199 49.1404 82.7427 49.6568 82.9923 50.261C83.242 50.8652 83.3073 51.53 83.1801 52.1714C83.0528 52.8128 82.7386 53.402 82.2773 53.8644C81.816 54.3268 81.2282 54.6418 80.5884 54.7693C79.9485 54.8969 79.2853 54.8315 78.6826 54.5812C78.0798 54.3309 77.5647 53.9071 77.2022 53.3634C76.8398 52.8196 76.6463 52.1803 76.6463 51.5264C76.6463 50.6494 76.9938 49.8084 77.6124 49.1883C78.231 48.5682 79.07 48.2198 79.9449 48.2198ZM5.7962 27.6976C6.44859 27.6976 7.08634 27.8915 7.62878 28.2548C8.17123 28.6182 8.59402 29.1346 8.84368 29.7388C9.09334 30.343 9.15866 31.0078 9.03139 31.6492C8.90411 32.2906 8.58995 32.8798 8.12864 33.3422C7.66733 33.8046 7.07958 34.1195 6.43972 34.2471C5.79986 34.3747 5.13663 34.3092 4.53389 34.059C3.93116 33.8087 3.41599 33.3849 3.05354 32.8411C2.69109 32.2974 2.49763 31.6581 2.49763 31.0041C2.49763 30.1272 2.84516 29.2861 3.46376 28.6661C4.08236 28.046 4.92136 27.6976 5.7962 27.6976ZM74.7343 19.0202H79.931C79.6348 20.5511 78.6087 21.8995 77.1855 23.0635C75.7624 24.2275 73.7631 24.811 71.1908 24.811C68.5006 24.811 66.3492 23.9736 64.7365 22.2987C63.1238 20.6237 62.3175 18.4216 62.3175 15.6921C62.3175 14.095 62.6488 12.5808 63.3114 11.1495C63.974 9.71828 64.9833 8.55902 66.3392 7.67173C67.6944 6.78432 69.2918 6.34061 71.1314 6.34061C73.387 6.34061 75.2072 6.90648 76.5918 8.03822C77.9764 9.16997 78.9556 10.5735 79.5295 12.2488C80.1037 13.924 80.3611 15.5491 80.3016 17.124H67.6422C67.5756 21.6558 73.6329 21.3186 74.7343 19.0208V19.0202ZM67.4899 14.0466H75.1286C74.8139 8.93831 67.5257 8.86842 67.4899 14.0466ZM0 7.03617H2.08205V2.41436H7.55333V7.03617H10.1957V11.5212H7.55333V17.7743C7.55333 19.8613 7.92585 20.2549 10.1691 20.0031V24.4758C10.1865 24.4758 9.76824 24.4971 8.91443 24.5398C8.06036 24.5829 7.44608 24.619 7.07276 24.6041C3.17216 24.4376 1.97519 22.9126 1.97519 18.8321V11.5212H0V7.03617ZM12.4852 7.0328H17.9367V9.65624C19.6853 6.82095 21.623 6.26022 23.6618 6.9239L23.6523 11.3638C23.6523 11.7833 17.719 9.37133 17.9367 17.4448V24.3582H12.4852V7.03359V7.0328ZM24.9787 12.3294C24.9787 8.38452 27.7319 6.46673 33.2383 6.57603C35.9904 6.64202 37.8256 7.18691 38.7438 8.21068C39.662 9.23445 40.1209 10.858 40.1207 13.0814V21.0257C40.1207 22.3167 40.171 22.9067 40.9866 23.2948V24.1954C37.3185 25.1324 35.3476 24.3736 34.9149 22.2501C33.4469 23.906 31.3654 24.7881 29.1078 24.7186C27.8417 24.679 26.69 24.2446 25.6534 23.4272C24.6168 22.6099 24.0975 21.2865 24.0975 19.4556C24.0975 18.0174 24.5856 17.0587 25.3077 16.2148C25.7784 15.6646 26.3953 15.2338 27.1385 14.9081C28.9545 14.1094 30.0361 14.2771 31.8458 13.7993C33.1099 13.4661 34.3492 12.9198 34.6385 12.0686C35.4879 9.56992 29.5465 8.83773 29.6399 12.3304L24.9787 12.3294ZM34.9698 15.6682C34.4203 16.0083 33.5841 16.3132 32.4613 16.5829C31.3384 16.8526 30.5259 17.1507 30.0237 17.4773C29.5217 17.8034 29.2825 18.4206 29.3061 19.3289C29.3783 20.4641 30.1311 21.0886 31.5647 21.2024C32.6885 21.1175 33.537 20.6494 34.1102 19.798C34.6834 18.9466 34.9702 17.8395 34.9708 16.4768V15.6682H34.9698ZM51.576 10.3282C53.6543 10.3282 55.3385 12.6646 55.3385 15.5474C55.3385 18.4302 53.6543 20.7674 51.576 20.7674C49.4977 20.7674 47.8134 18.4298 47.8134 15.5474C47.8134 12.665 49.4979 10.3282 51.576 10.3282ZM55.3385 8.7318C52.944 6.08361 49.0987 5.67158 46.0579 7.88517C43.9776 9.39924 42.7988 12.3325 42.7988 15.493C42.7988 20.5789 46.143 24.7019 50.2682 24.7019C52.2256 24.7019 54.0071 23.7729 55.3387 22.2541V24.3742H60.573V0H55.3387L55.3385 8.7318Z" fill="#E11B22"/>
<path fill-rule="evenodd" clip-rule="evenodd" d="M2.96106 37.1255H8.35866V54.505H2.96106V37.1255ZM10.976 37.1255H16.3736V39.4223C20.1559 34.966 27.5648 35.8188 27.5506 42.7007V54.5054H22.153V43.1444C21.962 41.1213 19.686 40.4004 17.9656 41.087C16.1682 41.8048 16.3732 43.3903 16.3732 44.9757V54.5054H10.976V37.1255ZM38.0545 40.4669C40.1326 40.4669 41.817 42.8043 41.817 45.6863C41.817 48.5683 40.1326 50.906 38.0545 50.906C35.9764 50.906 34.2919 48.5685 34.2919 45.6863C34.2919 42.8041 35.9764 40.4669 38.0545 40.4669ZM41.817 38.8705C39.4225 36.2223 35.5772 35.8105 32.5372 38.0238C30.4571 39.5379 29.2781 42.4712 29.2781 45.6316C29.2781 50.7176 32.6223 54.8406 36.7475 54.8406C38.7049 54.8406 40.4863 53.9118 41.8182 52.3928V54.5131H47.0524V30.1379H41.8182V38.8705H41.817ZM57.7999 42.6076C57.7999 38.6629 60.5531 36.7451 66.0595 36.8543C68.8116 36.9203 70.6468 37.4651 71.565 38.4887C72.4832 39.5124 72.9421 41.1359 72.9417 43.3594V51.3036C72.9417 52.5946 72.9922 53.1846 73.8078 53.5727V54.4733C70.1395 55.4105 68.1688 54.6515 67.7361 52.528C66.2681 54.1839 64.1864 55.0657 61.929 54.9964C60.6629 54.9568 59.5112 54.5224 58.4746 53.7049C57.438 52.8874 56.9187 51.5644 56.9187 49.7335C56.9187 48.2955 57.4068 47.3366 58.1287 46.4927C58.5996 45.9425 59.2163 45.5117 59.9595 45.185C61.7757 44.3862 62.8573 44.5539 64.6668 44.0762C65.9309 43.743 67.1704 43.1967 67.4597 42.3455C68.3091 39.8468 62.3677 39.1146 62.4611 42.6073L57.7999 42.6076ZM67.791 45.9465C67.2415 46.2865 66.4053 46.5913 65.2825 46.861C64.1596 47.1307 63.3471 47.4288 62.8449 47.7555C62.3428 48.0816 62.1035 48.6988 62.1271 49.6072C62.1994 50.7424 62.9523 51.3668 64.3857 51.4804C65.5096 51.3958 66.3582 50.9277 66.9314 50.0761C67.5046 49.2244 67.7914 48.1174 67.7919 46.7551V45.9465H67.791ZM49.7411 37.1255H55.1387V54.505H49.7411V37.1255ZM52.4396 29.9124C52.9682 29.9123 53.4849 30.0694 53.9244 30.3638C54.3639 30.6581 54.7065 31.0765 54.9088 31.566C55.1111 32.0555 55.164 32.5942 55.0609 33.1139C54.9577 33.6336 54.7032 34.1109 54.3294 34.4856C53.9556 34.8602 53.4794 35.1153 52.961 35.2187C52.4425 35.322 51.9052 35.2689 51.4169 35.0661C50.9285 34.8633 50.5112 34.5199 50.2176 34.0793C49.9239 33.6387 49.7673 33.1207 49.7673 32.5908C49.7673 32.2391 49.8365 31.8907 49.9708 31.5657C50.1051 31.2407 50.302 30.9454 50.5501 30.6967C50.7983 30.448 51.0929 30.2507 51.4171 30.1161C51.7413 29.9815 52.0888 29.9123 52.4398 29.9124H52.4396Z" fill="#FFC20E"/>
</g>
<defs>
<clipPath id="clip0_61_647">
<rect width="83.2432" height="55" fill="white"/>
</clipPath>
</defs>
</svg>
